# xmcd
#
# Track frame offsets: 
#        150
#        16520
#        31882
#        43665
#        58970
#        72800
#        90285
#        107415
#        125400
#        139710
#        158460
#        175002
#        203642
#
# Disc length: 3571 seconds
#
# Revision: 5
# Processed by: cddbd v1.5PL3 Copyright (c) Steve Scherf et al.
# Submitted via: ExactAudioCopy v0.90b4
#
DISCID=960df10d
DTITLE=Sherrié Austin - Love In The Real World
DYEAR=1999
DGENRE=Country
TTITLE0=Never Been Kissed
TTITLE1=Good Love Comin' On
TTITLE2=Little Bird
TTITLE3=That's No Way To Break A Heart
TTITLE4=Sarah
TTITLE5=All The Love A Heart Can Hold
TTITLE6=Dreaming Out Loud
TTITLE7=Heart To Heart
TTITLE8=Love In The Real World
TTITLE9=Heart Hold On
TTITLE10=All That Matters
TTITLE11=Wish
TTITLE12=Data
EXTD=YEAR: 1999
EXTT0=
EXTT1=
EXTT2=
EXTT3=
EXTT4=
EXTT5=
EXTT6=
EXTT7=
EXTT8=
EXTT9=
EXTT10=
EXTT11=
EXTT12=
PLAYORDER=
